# ProBuilder 5.0.6
# https://unity3d.com/unity/features/worldbuilding/probuilder
# 7/29/2022 11:58:30 AM

mtllib ./Pillar.mtl
o Pillar

g Pillar
v 0.4755286 -1 -0.1545086
v 0.4755286 0.8445655 -0.1545086
v 0.4045088 0.8445655 -0.2938928
v 0.4045088 -1 -0.2938928
v 0.2938928 0.8445655 -0.4045087
v 0.2938928 -1 -0.4045087
v 0.1545086 0.8445655 -0.4755285
v 0.1545086 -1 -0.4755285
v 0 0.8445655 -0.5000002
v 0 -1 -0.5000002
v -0.1545086 0.8445655 -0.4755285
v -0.1545086 -1 -0.4755285
v -0.2938927 0.8445655 -0.4045087
v -0.2938927 -1 -0.4045087
v -0.4045086 0.8445655 -0.2938927
v -0.4045086 -1 -0.2938927
v -0.4755284 0.8445655 -0.1545085
v -0.4755284 -1 -0.1545085
v -0.5000001 0.8445655 0
v -0.5000001 -1 0
v -0.4755284 0.8445655 0.1545085
v -0.4755284 -1 0.1545085
v -0.4045086 0.8445655 0.2938927
v -0.4045086 -1 0.2938927
v -0.2938927 0.8445655 0.4045086
v -0.2938927 -1 0.4045086
v -0.1545085 0.8445655 0.4755283
v -0.1545085 -1 0.4755283
v -1.490116E-08 0.8445655 0.5000001
v -1.490116E-08 -1 0.5000001
v 0.1545085 0.8445655 0.4755283
v 0.1545085 -1 0.4755283
v 0.2938926 0.8445655 0.4045085
v 0.2938926 -1 0.4045085
v 0.4045085 0.8445655 0.2938927
v 0.4045085 -1 0.2938927
v 0.4755283 0.8445655 0.1545085
v 0.4755283 -1 0.1545085
v 0.5 0.8445655 0
v 0.5 -1 0
v -0.003569379 1 0.3400871
v 0 1 0
v 0.1064766 1 0.3277013
v -0.1064766 1 0.3277014
v 0.1064767 1 -0.3277016
v 0 1 -0.3445658
v -0.3277014 1 -0.1064766
v -0.3445657 1 0
v 0 -1 0
v 0.3277013 1 0.1064766
v 0.2787594 1 0.2025306
v 0.3445655 1 0
v 0.3277016 1 -0.1064767
v 0.2787597 1 -0.2025307
v 0.2025307 1 -0.2787596
v -0.1064767 1 -0.3277015
v -0.2025307 1 -0.2787595
v -0.2787595 1 -0.2025306
v -0.3277014 1 0.1064766
v -0.2787595 1 0.2025306
v -0.2025306 1 0.2787594
v 0.2025305 1 0.2787594

vt 0.1005999 0.0004537381
vt 0.1005996 0.8439963
vt 0.2005053 0.8439963
vt 0.2005054 0.0004537381
vt 0.300411 0.8439963
vt 0.300411 0.0004537381
vt 0.4003165 0.8439963
vt 0.4003165 0.0004537381
vt 0.500222 0.8439963
vt 0.500222 0.0004537381
vt 0.6001273 0.8439963
vt 0.6001273 0.0004537381
vt 0.7000328 0.8439963
vt 0.7000327 0.0004537381
vt 0.7999381 0.8439963
vt 0.799938 0.0004537381
vt 0.8998434 0.8439963
vt 0.8998432 0.0004537381
vt 0.9997491 0.8439963
vt 0.999749 0.0004537381
vt 0.0006936856 0.0004537381
vt 0.0006939888 0.8439963
vt 0.4816787 0.1052244
vt 0.5002245 0.4999442
vt 0.6055008 0.1759364
vt 0.3949478 0.1759363
vt 0.6055011 0.8239521
vt 0.5002244 0.8406264
vt 0.1762166 0.6052204
vt 0.1595425 0.4999439
vt 0.004107505 0.4999442
vt 0.02838913 0.3466361
vt 0.02838877 0.6532523
vt 0.09885708 0.2083347
vt 0.0988569 0.7915539
vt 0.2086136 0.09857795
vt 0.2086136 0.9013107
vt 0.346915 0.02810972
vt 0.3469154 0.971779
vt 0.5002234 0.003827875
vt 0.500224 0.9960608
vt 0.653532 0.02810944
vt 0.6535327 0.971779
vt 0.7918337 0.09857755
vt 0.7918344 0.9013106
vt 0.9015904 0.2083341
vt 0.901591 0.7915536
vt 0.9720586 0.3466355
vt 0.9720588 0.6532521
vt 0.9963405 0.4999437
vt 0.8242321 0.3946676
vt 0.7758419 0.2996963
vt 0.8409064 0.499944
vt 0.8242326 0.6052205
vt 0.7758423 0.7001919
vt 0.7004725 0.7755617
vt 0.3949476 0.8239521
vt 0.2999764 0.7755616
vt 0.2246068 0.7001917
vt 0.1762166 0.3946675
vt 0.2246069 0.2996962
vt 0.2999765 0.2243266
vt 0.7004724 0.2243267
vt -0.2126301 -0.1592122
vt -0.2653632 -0.0119337
vt -0.4265084 -0.2099645
vt -0.4628485 -0.1084703
vt -0.2436446 -0.1058175
vt -0.2609487 0.04965698
vt -0.4634621 -0.1058175
vt -0.4753869 0.001324797
vt -0.4634622 0.1058174
vt -0.475387 -0.001324926
vt -0.2436447 0.1058174
vt -0.2609488 -0.0496571
vt -0.2653633 0.01193353
vt -0.2126302 0.1592121
vt -0.4628486 0.1084701
vt -0.4265085 0.2099644
vt -0.2526718 0.0819574
vt -0.1627296 0.2099502
vt -0.41744 0.2274607
vt -0.355458 0.3156645
vt -0.2123387 0.1596005
vt -0.08569268 0.2514294
vt -0.3208971 0.3507414
vt -0.2336214 0.4140235
vt -0.07821728 0.2538545
vt 0.07821726 0.2538545
vt -0.05390197 0.472323
vt 0.05390196 0.472323
vt 0.08569222 0.2514295
vt 0.2123383 0.1596007
vt 0.2336209 0.4140237
vt 0.3208967 0.3507415
vt 0.1627293 0.2099505
vt 0.2526716 0.08195764
vt 0.3554577 0.3156648
vt 0.4174398 0.227461
vt 0.21263 0.1592121
vt 0.2653632 0.01193349
vt 0.4265084 0.2099644
vt 0.4628485 0.1084701
vt 0.2436447 0.1058162
vt 0.2609486 -0.04965833
vt 0.4634622 0.1058162
vt 0.4753868 -0.001326151
vt 0.2609489 0.04965694
vt 0.2436448 -0.1058175
vt 0.4753871 0.001324763
vt 0.4634623 -0.1058175
vt 0.2653632 -0.01193357
vt 0.2126301 -0.1592121
vt 0.4628485 -0.1084702
vt 0.4265085 -0.2099644
vt 0.2526718 -0.08195765
vt 0.1627296 -0.2099504
vt 0.41744 -0.2274609
vt 0.355458 -0.3156647
vt 0.2123386 -0.1596007
vt 0.08569258 -0.2514296
vt 0.320897 -0.3507416
vt 0.2336213 -0.4140237
vt 0.1280637 -0.2161318
vt -0.02465818 -0.2500104
vt 0.1551608 -0.437515
vt 0.04638726 -0.4580011
vt 0.04967587 0.4750392
vt -0.0856925 -0.2514296
vt -0.2123385 -0.1596008
vt -0.2336212 -0.4140238
vt -0.3208969 -0.3507416
vt -0.1627295 -0.2099505
vt -0.2526717 -0.08195776
vt -0.3554579 -0.3156649
vt -0.4174399 -0.2274611

vn 0.9510568 0 -0.309016
vn 0.809017 0 -0.5877853
vn 0.5877851 0 -0.8090171
vn 0.3090168 0 -0.9510565
vn -9.806488E-08 0 -1
vn -0.3090171 0 -0.9510564
vn -0.5877855 0 -0.8090168
vn -0.8090171 0 -0.5877851
vn -0.9510565 0 -0.3090169
vn -1 0 0
vn -0.9510565 0 0.309017
vn -0.8090169 0 0.5877854
vn -0.5877852 0 0.8090171
vn -0.309017 0 0.9510565
vn 1.056083E-07 0 1
vn 0.3090171 0 0.9510565
vn 0.5877852 0 0.809017
vn 0.809017 0 0.5877852
vn 0.9510565 0 0.309017
vn 1 0 9.806488E-07
vn 0 1 0
vn 0 -1 0
vn -0.6339271 0.7027134 0.3230021
vn -0.7027136 0.7027135 0.1112988
vn -0.7027136 0.7027134 -0.1112987
vn -0.6339272 0.7027134 -0.323002
vn -0.5030875 0.7027134 -0.5030872
vn -0.3230022 0.7027135 -0.633927
vn -0.1112989 0.7027134 -0.7027135
vn 0.1112986 0.7027134 -0.7027136
vn 0.3230018 0.7027135 -0.6339271
vn 0.5030873 0.7027134 -0.5030875
vn 0.6339272 0.7027134 -0.323002
vn 0.7027137 0.7027135 -0.1112974
vn 0.7027137 0.7027134 0.1112989
vn 0.633927 0.7027135 0.323002
vn 0.5030874 0.7027135 0.5030874
vn 0.323002 0.7027135 0.633927
vn 0.1095297 0.7139832 0.6915427
vn 0.09471212 0.7068924 0.7006991
vn 0.07989457 0.6998014 0.7098555
vn -0.1112988 0.7027134 0.7027137
vn -0.09750425 0.7081695 0.6991109
vn -0.08370966 0.7136254 0.6955081
vn -0.323002 0.7027135 0.633927
vn -0.5030873 0.7027134 0.5030875

usemtl Vol_7_1_Tiles
f 46/28/21 42/24/21 45/27/21
f 48/30/21 42/24/21 47/29/21
f 8/39/22 49/24/22 10/41/22
f 26/44/22 49/24/22 28/42/22
f 14/45/22 49/24/22 16/47/22
f 20/50/22 49/24/22 22/48/22
f 51/52/21 50/51/21 42/24/21
f 50/51/21 52/53/21 42/24/21
f 53/54/21 42/24/21 52/53/21
f 53/54/21 54/55/21 42/24/21
f 55/56/21 42/24/21 54/55/21
f 55/56/21 45/27/21 42/24/21
f 56/57/21 42/24/21 46/28/21
f 56/57/21 57/58/21 42/24/21
f 58/59/21 42/24/21 57/58/21
f 58/59/21 47/29/21 42/24/21
f 48/30/21 59/60/21 42/24/21
f 59/60/21 60/61/21 42/24/21
f 60/61/21 61/62/21 42/24/21
f 61/62/21 44/26/21 42/24/21
f 43/25/21 62/63/21 42/24/21
f 62/63/21 51/52/21 42/24/21
f 3/3/2 2/2/1 1/1/1
f 1/1/1 4/4/2 3/3/2
f 5/5/3 3/3/2 4/4/2
f 4/4/2 6/6/3 5/5/3
f 7/7/4 5/5/3 6/6/3
f 6/6/3 8/8/4 7/7/4
f 9/9/5 7/7/4 8/8/4
f 8/8/4 10/10/5 9/9/5
f 11/11/6 9/9/5 10/10/5
f 10/10/5 12/12/6 11/11/6
f 13/13/7 11/11/6 12/12/6
f 12/12/6 14/14/7 13/13/7
f 15/15/8 13/13/7 14/14/7
f 14/14/7 16/16/8 15/15/8
f 17/17/9 15/15/8 16/16/8
f 16/16/8 18/18/9 17/17/9
f 19/19/10 17/17/9 18/18/9
f 18/18/9 20/20/10 19/19/10
f 21/2/11 19/22/10 20/21/10
f 20/21/10 22/1/11 21/2/11
f 23/3/12 21/2/11 22/1/11
f 22/1/11 24/4/12 23/3/12
f 25/5/13 23/3/12 24/4/12
f 24/4/12 26/6/13 25/5/13
f 27/7/14 25/5/13 26/6/13
f 26/6/13 28/8/14 27/7/14
f 29/9/15 27/7/14 28/8/14
f 28/8/14 30/10/15 29/9/15
f 31/11/16 29/9/15 30/10/15
f 30/10/15 32/12/16 31/11/16
f 33/13/17 31/11/16 32/12/16
f 32/12/16 34/14/17 33/13/17
f 35/15/18 33/13/17 34/14/17
f 34/14/17 36/16/18 35/15/18
f 37/17/19 35/15/18 36/16/18
f 36/16/18 38/18/19 37/17/19
f 39/19/20 37/17/19 38/18/19
f 38/18/19 40/20/20 39/19/20
f 2/2/1 39/22/20 40/21/20
f 40/21/20 1/1/1 2/2/1
f 41/23/21 43/25/21 42/24/21
f 42/24/21 44/26/21 41/23/21
f 36/34/22 49/24/22 40/31/22
f 40/31/22 38/32/22 36/34/22
f 1/33/22 40/31/22 49/24/22
f 49/24/22 4/35/22 1/33/22
f 32/38/22 49/24/22 36/34/22
f 36/34/22 34/36/22 32/38/22
f 6/37/22 4/35/22 49/24/22
f 49/24/22 8/39/22 6/37/22
f 28/42/22 49/24/22 32/38/22
f 32/38/22 30/40/22 28/42/22
f 12/43/22 10/41/22 49/24/22
f 49/24/22 14/45/22 12/43/22
f 22/48/22 49/24/22 26/44/22
f 26/44/22 24/46/22 22/48/22
f 18/49/22 16/47/22 49/24/22
f 49/24/22 20/50/22 18/49/22
f 59/66/23 21/64/23 23/65/23
f 23/65/23 60/67/23 59/66/23
f 48/70/24 19/68/24 21/69/24
f 21/69/24 59/71/24 48/70/24
f 19/74/25 48/72/25 47/73/25
f 47/73/25 17/75/25 19/74/25
f 58/78/26 15/76/26 17/77/26
f 17/77/26 47/79/26 58/78/26
f 57/82/27 13/80/27 15/81/27
f 15/81/27 58/83/27 57/82/27
f 56/86/28 11/84/28 13/85/28
f 13/85/28 57/87/28 56/86/28
f 46/90/29 9/88/29 11/89/29
f 11/89/29 56/91/29 46/90/29
f 9/89/30 46/91/30 45/90/30
f 45/90/30 7/88/30 9/89/30
f 55/94/31 5/92/31 7/93/31
f 7/93/31 45/95/31 55/94/31
f 54/98/32 3/96/32 5/97/32
f 5/97/32 55/99/32 54/98/32
f 53/102/33 2/100/33 3/101/33
f 3/101/33 54/103/33 53/102/33
f 52/106/34 39/104/34 2/105/34
f 2/105/34 53/107/34 52/106/34
f 50/110/35 37/108/35 39/109/35
f 39/109/35 52/111/35 50/110/35
f 51/114/36 35/112/36 37/113/36
f 37/113/36 50/115/36 51/114/36
f 62/118/37 33/116/37 35/117/37
f 35/117/37 51/119/37 62/118/37
f 43/122/38 31/120/38 33/121/38
f 33/121/38 62/123/38 43/122/38
f 41/126/40 29/124/39 31/125/40
f 31/125/40 43/127/41 41/126/40
f 44/90/43 27/88/42 29/89/43
f 29/89/43 41/128/44 44/90/43
f 61/131/45 25/129/45 27/130/45
f 27/130/45 44/132/45 61/131/45
f 60/135/46 23/133/46 25/134/46
f 25/134/46 61/136/46 60/135/46

